ffmpeg started on 2016-11-26 at 09:45:28
Report written to "Output/NVENCh264/results/ffmpeg/crowd_run_2160p50ll2000k.log"
Command line:
Tools/ffmpeg/ffmpeg -benchmark -y -i Input/y4m/crowd_run_2160p50.y4m -c:v h264_nvenc -preset ll -b:v 2000k -an Output/NVENCh264/encoded/crowd_run_2160p50ll2000k.mkv
ffmpeg version N-82227-gdb23fde Copyright (c) 2000-2016 the FFmpeg developers
  built with gcc 5.4.0 (Ubuntu 5.4.0-6ubuntu1~16.04.2) 20160609
  configuration: --prefix=/home/jaroslav/ffmpeg_build --pkg-config-flags=--static --extra-cflags=-I/home/jaroslav/ffmpeg_build/include --extra-ldflags=-L/home/jaroslav/ffmpeg_build/lib --bindir=/home/jaroslav/bin --enable-gpl --enable-libass --enable-libfdk-aac --enable-libfreetype --enable-libmp3lame --enable-libopus --enable-libtheora --enable-libvorbis --enable-libvpx --enable-libx264 --enable-libx265 --enable-nvenc --enable-libmfx --enable-libxvid --enable-libgsm --enable-libopencore-amrnb --enable-version3 --enable-nonfree
  libavutil      55. 35.100 / 55. 35.100
  libavcodec     57. 66.101 / 57. 66.101
  libavformat    57. 57.100 / 57. 57.100
  libavdevice    57.  2.100 / 57.  2.100
  libavfilter     6. 66.100 /  6. 66.100
  libswscale      4.  3.100 /  4.  3.100
  libswresample   2.  4.100 /  2.  4.100
  libpostproc    54.  2.100 / 54.  2.100
Input #0, yuv4mpegpipe, from 'Input/y4m/crowd_run_2160p50.y4m':
  Duration: 00:00:10.00, start: 0.000000, bitrate: 4976642 kb/s
    Stream #0:0: Video: rawvideo (I420 / 0x30323449), yuv420p(progressive), 3840x2160, SAR 1:1 DAR 16:9, 50 fps, 50 tbr, 50 tbn, 50 tbc
[h264_nvenc @ 0x31fc1c0] The variable bitrate rate-control requires the 'qmin' and/or 'qmax' option set.
Output #0, matroska, to 'Output/NVENCh264/encoded/crowd_run_2160p50ll2000k.mkv':
  Metadata:
    encoder         : Lavf57.57.100
    Stream #0:0: Video: h264 (h264_nvenc) (Main) (H264 / 0x34363248), yuv420p, 3840x2160 [SAR 1:1 DAR 16:9], q=-1--1, 2000 kb/s, 50 fps, 1k tbn, 50 tbc
    Metadata:
      encoder         : Lavc57.66.101 h264_nvenc
    Side data:
      cpb: bitrate max/min/avg: 0/0/2000000 buffer size: 4000000 vbv_delay: -1
Stream mapping:
  Stream #0:0 -> #0:0 (rawvideo (native) -> h264 (h264_nvenc))
Press [q] to stop, [?] for help
frame=    9 fps=0.0 q=0.0 size=       0kB time=00:00:00.00 bitrate=N/A speed=   0x    frame=   17 fps= 13 q=0.0 size=       0kB time=00:00:00.00 bitrate=N/A speed=   0x    frame=   19 fps= 11 q=0.0 size=       0kB time=00:00:00.00 bitrate=N/A speed=   0x    frame=   20 fps=7.9 q=0.0 size=       0kB time=00:00:00.00 bitrate=N/A speed=   0x    frame=   21 fps=6.5 q=0.0 size=       0kB time=00:00:00.00 bitrate=N/A speed=   0x    frame=   23 fps=5.4 q=0.0 size=       0kB time=00:00:00.00 bitrate=N/A speed=   0x    frame=   24 fps=2.9 q=0.0 size=       0kB time=00:00:00.00 bitrate=N/A speed=   0x    frame=   25 fps=2.5 q=0.0 size=       0kB time=00:00:00.00 bitrate=N/A speed=   0x    frame=   30 fps=2.9 q=0.0 size=       0kB time=00:00:00.00 bitrate=N/A speed=   0x    frame=   32 fps=2.9 q=49.0 size=       1kB time=00:00:00.02 bitrate= 283.8kbits/s speed=0.00191x    frame=   43 fps=3.7 q=49.0 size=       1kB time=00:00:00.24 bitrate=  24.7kbits/s speed=0.0206x    frame=   49 fps=4.0 q=49.0 size=       1kB time=00:00:00.36 bitrate=  16.5kbits/s speed=0.0295x    frame=   50 fps=3.9 q=49.0 size=       1kB time=00:00:00.38 bitrate=  15.6kbits/s speed=0.0295x    frame=   55 fps=4.1 q=49.0 size=       1kB time=00:00:00.48 bitrate=  12.4kbits/s speed=0.0359x    frame=   60 fps=4.2 q=49.0 size=       1kB time=00:00:00.58 bitrate=  10.3kbits/s speed=0.0407x    frame=   73 fps=4.9 q=49.0 size=       1kB time=00:00:00.84 bitrate=   7.1kbits/s speed=0.056x    frame=   74 fps=4.7 q=49.0 size=       1kB time=00:00:00.86 bitrate=   6.9kbits/s speed=0.0549x    frame=   75 fps=4.5 q=49.0 size=       1kB time=00:00:00.88 bitrate=   6.8kbits/s speed=0.0527x    frame=   81 fps=4.7 q=49.0 size=       1kB time=00:00:01.00 bitrate=   6.0kbits/s speed=0.058x    frame=   83 fps=4.6 q=49.0 size=       1kB time=00:00:01.04 bitrate=   5.7kbits/s speed=0.0579x    frame=   97 fps=5.2 q=49.0 size=       1kB time=00:00:01.32 bitrate=   4.5kbits/s speed=0.0705x    frame=  102 fps=5.3 q=49.0 size=       1kB time=00:00:01.42 bitrate=   4.2kbits/s speed=0.0738x    frame=  113 fps=5.7 q=49.0 size=       1kB time=00:00:01.64 bitrate=   3.6kbits/s speed=0.0823x    frame=  115 fps=5.5 q=49.0 size=       1kB time=00:00:01.68 bitrate=   3.5kbits/s speed=0.0798x    frame=  117 fps=5.4 q=49.0 size=       1kB time=00:00:01.72 bitrate=   3.5kbits/s speed=0.0789x    frame=  121 fps=5.4 q=49.0 size=       1kB time=00:00:01.80 bitrate=   3.3kbits/s speed=0.0806x    frame=  123 fps=5.3 q=49.0 size=       1kB time=00:00:01.84 bitrate=   3.2kbits/s speed=0.0798x    frame=  128 fps=5.4 q=49.0 size=       1kB time=00:00:01.94 bitrate=   3.1kbits/s speed=0.0823x    frame=  133 fps=5.5 q=49.0 size=       1kB time=00:00:02.04 bitrate=   2.9kbits/s speed=0.0847x    frame=  139 fps=5.6 q=49.0 size=       1kB time=00:00:02.16 bitrate=   2.8kbits/s speed=0.0877x    frame=  144 fps=5.7 q=49.0 size=       1kB time=00:00:02.26 bitrate=   2.6kbits/s speed=0.0899x    frame=  161 fps=6.3 q=49.0 size=       1kB time=00:00:02.60 bitrate=   2.3kbits/s speed=0.101x    frame=  178 fps=6.8 q=49.0 size=       1kB time=00:00:02.94 bitrate=   2.0kbits/s speed=0.112x    frame=  182 fps=6.7 q=49.0 size=       1kB time=00:00:03.02 bitrate=   2.0kbits/s speed=0.111x    frame=  184 fps=6.6 q=49.0 size=       1kB time=00:00:03.06 bitrate=   1.9kbits/s speed=0.109x    frame=  188 fps=6.5 q=49.0 size=       1kB time=00:00:03.14 bitrate=   1.9kbits/s speed=0.109x    frame=  194 fps=6.6 q=49.0 size=       1kB time=00:00:03.26 bitrate=   1.8kbits/s speed=0.111x    frame=  196 fps=6.5 q=49.0 size=       1kB time=00:00:03.30 bitrate=   1.8kbits/s speed=0.11x    frame=  197 fps=6.5 q=49.0 size=       1kB time=00:00:03.32 bitrate=   1.8kbits/s speed=0.109x    frame=  201 fps=6.4 q=49.0 size=       1kB time=00:00:03.40 bitrate=   1.8kbits/s speed=0.108x    frame=  208 fps=6.5 q=49.0 size=       1kB time=00:00:03.54 bitrate=   1.7kbits/s speed=0.111x    frame=  225 fps=7.0 q=49.0 size=       1kB time=00:00:03.88 bitrate=   1.5kbits/s speed=0.12x    frame=  243 fps=7.4 q=49.0 size=       1kB time=00:00:04.24 bitrate=   1.4kbits/s speed=0.129x    frame=  261 fps=7.8 q=49.0 size=       1kB time=00:00:04.60 bitrate=   1.3kbits/s speed=0.138x    frame=  279 fps=8.2 q=49.0 size=       1kB time=00:00:04.96 bitrate=   1.2kbits/s speed=0.146x    frame=  296 fps=8.6 q=49.0 size=    3045kB time=00:00:05.30 bitrate=4706.4kbits/s speed=0.154x    frame=  301 fps=8.6 q=49.0 size=    3045kB time=00:00:05.40 bitrate=4619.2kbits/s speed=0.154x    frame=  319 fps=9.0 q=49.0 size=    3045kB time=00:00:05.76 bitrate=4330.6kbits/s speed=0.162x    frame=  337 fps=9.4 q=49.0 size=    3045kB time=00:00:06.12 bitrate=4075.9kbits/s speed=0.17x    frame=  355 fps=9.7 q=49.0 size=    3045kB time=00:00:06.48 bitrate=3849.5kbits/s speed=0.177x    frame=  373 fps= 10 q=49.0 size=    3045kB time=00:00:06.84 bitrate=3646.9kbits/s speed=0.185x    frame=  391 fps= 10 q=49.0 size=    3045kB time=00:00:07.20 bitrate=3464.6kbits/s speed=0.192x    frame=  409 fps= 11 q=49.0 size=    3045kB time=00:00:07.56 bitrate=3299.6kbits/s speed=0.199x    frame=  427 fps= 11 q=49.0 size=    3045kB time=00:00:07.92 bitrate=3149.7kbits/s speed=0.205x    frame=  445 fps= 11 q=49.0 size=    3045kB time=00:00:08.28 bitrate=3012.7kbits/s speed=0.212x    frame=  463 fps= 12 q=49.0 size=    3045kB time=00:00:08.64 bitrate=2887.2kbits/s speed=0.218x    frame=  481 fps= 12 q=49.0 size=    3045kB time=00:00:09.00 bitrate=2771.8kbits/s speed=0.224x    frame=  499 fps= 12 q=49.0 size=    3045kB time=00:00:09.36 bitrate=2665.2kbits/s speed=0.23x    frame=  500 fps= 12 q=49.0 Lsize=    6286kB time=00:00:09.98 bitrate=5159.2kbits/s speed=0.245x    
video:6282kB audio:0kB subtitle:0kB other streams:0kB global headers:0kB muxing overhead: 0.067611%
bench: utime=1.320s
bench: maxrss=1396904kB
